<?xml version="1.0" standalone="no"?>
<!DOCTYPE svg PUBLIC "-//W3C//DTD SVG 20010904//EN"
 "http://www.w3.org/TR/2001/REC-SVG-20010904/DTD/svg10.dtd">
<svg version="1.0" xmlns="http://www.w3.org/2000/svg"
 width="1024.000000pt" height="1024.000000pt" viewBox="0 0 1024.000000 1024.000000"
 preserveAspectRatio="xMidYMid meet">

<g transform="translate(0.000000,1024.000000) scale(0.100000,-0.100000)"
fill="#FFFFFF" stroke="none">
<path d="M6695 7754 c-376 -35 -678 -147 -953 -353 -279 -210 -500 -524 -602
-856 -51 -165 -64 -260 -64 -490 0 -193 2 -233 22 -325 41 -187 103 -338 211
-514 l43 -70 -40 -155 c-22 -86 -72 -274 -112 -418 -77 -278 -79 -295 -35
-339 53 -53 89 -37 719 328 l80 46 36 -18 c99 -51 319 -115 500 -147 143 -24
454 -24 590 1 347 63 667 219 893 435 278 266 447 576 508 931 18 108 20 151
16 315 -4 141 -10 212 -25 277 -87 368 -279 689 -556 927 -250 215 -532 347
-866 406 -79 14 -298 25 -365 19z m-751 -1458 c38 -16 91 -67 112 -108 9 -17
18 -53 21 -82 15 -150 -89 -265 -240 -266 -79 0 -120 15 -165 60 -79 78 -97
190 -48 288 57 112 197 160 320 108z m921 13 c89 -23 175 -132 175 -225 0
-139 -106 -243 -248 -244 -144 0 -236 91 -236 235 -1 169 141 276 309 234z
m1010 -23 c142 -84 162 -278 39 -386 -51 -44 -93 -60 -161 -60 -169 0 -277
148 -232 315 13 49 98 135 149 152 57 20 152 9 205 -21z"/>
<path d="M2709 7711 l-22 -17 50 -80 c56 -90 626 -963 697 -1067 25 -38 49
-80 52 -93 6 -25 -30 -178 -178 -742 -44 -169 -131 -506 -193 -750 -104 -407
-112 -443 -96 -452 40 -21 258 -81 397 -109 296 -59 536 -80 924 -81 226 0
248 -6 288 -81 38 -71 20 -140 -52 -193 -25 -19 -44 -21 -209 -24 -454 -9
-1071 71 -1382 178 -32 11 -62 17 -66 13 -11 -12 -139 -545 -139 -578 0 -55
35 -92 125 -134 471 -222 1507 -297 2213 -161 278 54 532 139 608 203 59 50
60 63 13 263 -23 98 -46 202 -52 229 -5 28 -13 54 -17 58 -4 5 -53 -19 -108
-52 -145 -86 -176 -101 -251 -117 -134 -27 -265 19 -370 131 -104 111 -124
225 -72 415 15 58 51 191 79 295 28 105 60 219 71 255 12 36 21 71 21 77 0 7
-15 36 -34 65 -86 135 -147 289 -191 484 -23 100 -29 150 -33 309 -3 117 0
224 7 278 l12 88 -44 62 c-24 34 -94 134 -157 222 -114 160 -146 206 -318 450
-163 232 -193 267 -237 282 -22 8 -300 91 -619 184 -318 93 -581 171 -585 173
-3 2 -29 11 -58 19 -49 15 -54 14 -74 -2z"/>
<path d="M2455 3971 c-399 -122 -638 -267 -721 -436 -61 -126 -30 -241 100
-369 126 -125 305 -221 595 -320 339 -116 756 -200 1253 -252 238 -25 900 -30
1153 -10 867 71 1617 305 1883 590 31 34 70 86 87 116 97 179 -44 388 -370
545 -109 53 -419 164 -430 154 -3 -3 11 -74 30 -158 61 -264 46 -351 -79 -476
-52 -52 -95 -83 -161 -117 -220 -112 -592 -200 -1020 -242 -527 -52 -1135 -11
-1623 109 -440 108 -657 267 -669 490 -3 58 3 98 40 238 24 95 39 167 33 166
-6 0 -51 -13 -101 -28z"/>
</g>
</svg>
